<svg width="256" height="277" viewBox="0 0 256 277" fill="none" xmlns="http://www.w3.org/2000/svg">
<path d="M0.0294001 47.7798C-0.733058 29.2558 13.4254 13.5079 31.9259 12.3026L219.635 0.0737969C239.655 -1.23045 256.479 14.9241 255.99 34.9805L250.904 243.203C250.425 262.789 233.598 277.957 214.068 276.407L38.9398 262.51C21.7213 261.144 8.23494 247.134 7.52459 229.876L0.0294001 47.7798Z" fill="#30B0DC"/>
<path d="M178.15 97.234C167.641 97.234 159.763 87.665 151.7 80.9252V80.9252C147.1 77.0222 140.095 75.0707 130.686 75.0707C124.693 75.0707 119.779 75.8025 115.946 77.2661C112.182 78.6601 109.394 80.5767 107.582 83.016C105.77 85.4554 104.829 88.2433 104.759 91.3796C104.62 93.9583 105.073 96.2931 106.119 98.384C107.234 100.405 108.976 102.252 111.346 103.925C113.715 105.528 116.747 106.991 120.441 108.316C124.135 109.64 128.526 110.825 133.614 111.87L151.177 115.634C163.025 118.143 173.166 121.453 181.599 125.565C190.032 129.678 196.932 134.521 202.299 140.097C207.666 145.603 211.603 151.806 214.112 158.706C216.691 165.606 218.015 173.133 218.085 181.287C218.015 195.366 214.496 207.284 207.526 217.041C200.557 226.799 190.59 234.221 177.627 239.309C164.733 244.397 149.225 246.941 131.105 246.941C112.496 246.941 96.2566 244.188 82.3871 238.682C68.5873 233.176 57.8541 224.708 50.1875 213.278C47.0102 208.468 44.4913 203.098 42.6307 197.166C37.9435 182.225 51.4148 169.16 67.0745 169.16H76.4498C86.2263 169.16 93.4365 177.505 98.8005 185.678V185.678C101.728 190.139 105.84 193.519 111.137 195.819C116.503 198.119 122.88 199.269 130.268 199.269C136.471 199.269 141.663 198.502 145.845 196.969C150.027 195.436 153.198 193.31 155.359 190.592C157.519 187.874 158.634 184.772 158.704 181.287C158.634 178.012 157.554 175.154 155.463 172.715C153.442 170.206 150.097 167.975 145.427 166.024C140.757 164.003 134.45 162.121 126.505 160.379L105.178 155.779C86.2203 151.667 71.2706 144.802 60.3283 135.183C49.4557 125.496 44.0543 112.288 44.124 95.5613C44.0543 81.9706 47.6785 70.0875 54.9965 59.9119C62.3843 49.6665 72.5948 41.6863 85.6279 35.9713C98.7308 30.2562 113.75 27.3987 130.686 27.3987C147.971 27.3987 162.921 30.2911 175.536 36.0758C188.151 41.8606 197.873 50.015 204.703 60.5391C206.495 63.254 208.057 66.0887 209.388 69.0433C215.955 83.6186 202.156 97.234 186.17 97.234H178.15Z" fill="white"/>
</svg>
